<svg width="141" height="64" viewBox="0 0 141 64" fill="none" xmlns="http://www.w3.org/2000/svg">
<path d="M63.9897 14.9965L65.9932 12.993L70.0001 17L74.007 12.9931L76.0105 14.9965L70.0001 21.0069L63.9897 14.9965Z" fill="white"/>
<path fill-rule="evenodd" clip-rule="evenodd" d="M54.4167 17C54.4167 8.39356 61.3936 1.41666 70 1.41666C78.6064 1.41666 85.5833 8.39356 85.5833 17C85.5833 25.6064 78.6064 32.5833 70 32.5833C61.3936 32.5833 54.4167 25.6064 54.4167 17ZM70 29.75C62.9584 29.75 57.25 24.0417 57.25 17C57.25 9.95836 62.9584 4.24999 70 4.24999C77.0417 4.24999 82.75 9.95836 82.75 17C82.75 24.0417 77.0417 29.75 70 29.75Z" fill="white"/>
<path d="M6.886 58.264C5.654 58.264 4.47333 58.1027 3.344 57.78C2.21467 57.4427 1.30533 57.01 0.616 56.482L1.826 53.798C2.486 54.2673 3.26333 54.656 4.158 54.964C5.06733 55.2573 5.984 55.404 6.908 55.404C7.612 55.404 8.17667 55.338 8.602 55.206C9.042 55.0593 9.36467 54.8613 9.57 54.612C9.77533 54.3627 9.878 54.0767 9.878 53.754C9.878 53.3433 9.71667 53.0207 9.394 52.786C9.07133 52.5367 8.646 52.3387 8.118 52.192C7.59 52.0307 7.00333 51.884 6.358 51.752C5.72733 51.6053 5.08933 51.4293 4.444 51.224C3.81333 51.0187 3.234 50.7547 2.706 50.432C2.178 50.1093 1.74533 49.684 1.408 49.156C1.08533 48.628 0.924 47.9533 0.924 47.132C0.924 46.252 1.15867 45.4527 1.628 44.734C2.112 44.0007 2.83067 43.4213 3.784 42.996C4.752 42.556 5.962 42.336 7.414 42.336C8.382 42.336 9.33533 42.4533 10.274 42.688C11.2127 42.908 12.0413 43.2453 12.76 43.7L11.66 46.406C10.9413 45.9953 10.2227 45.6947 9.504 45.504C8.78533 45.2987 8.08133 45.196 7.392 45.196C6.70267 45.196 6.138 45.2767 5.698 45.438C5.258 45.5993 4.94267 45.812 4.752 46.076C4.56133 46.3253 4.466 46.6187 4.466 46.956C4.466 47.352 4.62733 47.6747 4.95 47.924C5.27267 48.1587 5.698 48.3493 6.226 48.496C6.754 48.6427 7.33333 48.7893 7.964 48.936C8.60933 49.0827 9.24733 49.2513 9.878 49.442C10.5233 49.6327 11.11 49.8893 11.638 50.212C12.166 50.5347 12.5913 50.96 12.914 51.488C13.2513 52.016 13.42 52.6833 13.42 53.49C13.42 54.3553 13.178 55.1473 12.694 55.866C12.21 56.5847 11.484 57.164 10.516 57.604C9.56267 58.044 8.35267 58.264 6.886 58.264ZM21.3333 58.176C20.0573 58.176 18.9206 57.9193 17.9233 57.406C16.926 56.878 16.1413 56.152 15.5693 55.228C15.012 54.304 14.7333 53.2553 14.7333 52.082C14.7333 50.894 15.012 49.8453 15.5693 48.936C16.1413 48.012 16.926 47.2933 17.9233 46.78C18.9206 46.252 20.0573 45.988 21.3333 45.988C22.58 45.988 23.6653 46.252 24.5893 46.78C25.5133 47.2933 26.1953 48.034 26.6353 49.002L23.9733 50.432C23.6653 49.8747 23.2766 49.464 22.8073 49.2C22.3526 48.936 21.854 48.804 21.3113 48.804C20.7246 48.804 20.1966 48.936 19.7273 49.2C19.258 49.464 18.884 49.838 18.6053 50.322C18.3413 50.806 18.2093 51.3927 18.2093 52.082C18.2093 52.7713 18.3413 53.358 18.6053 53.842C18.884 54.326 19.258 54.7 19.7273 54.964C20.1966 55.228 20.7246 55.36 21.3113 55.36C21.854 55.36 22.3526 55.2353 22.8073 54.986C23.2766 54.722 23.6653 54.304 23.9733 53.732L26.6353 55.184C26.1953 56.1373 25.5133 56.878 24.5893 57.406C23.6653 57.9193 22.58 58.176 21.3333 58.176ZM28.6113 58V46.164H31.8893V49.508L31.4273 48.54C31.7793 47.704 32.344 47.0733 33.1213 46.648C33.8987 46.208 34.8447 45.988 35.9593 45.988V49.156C35.8127 49.1413 35.6807 49.134 35.5633 49.134C35.446 49.1193 35.3213 49.112 35.1893 49.112C34.2507 49.112 33.488 49.3833 32.9013 49.926C32.3293 50.454 32.0433 51.2827 32.0433 52.412V58H28.6113ZM43.5461 58.176C42.2847 58.176 41.1627 57.912 40.1801 57.384C39.2121 56.856 38.4421 56.1373 37.8701 55.228C37.3127 54.304 37.0341 53.2553 37.0341 52.082C37.0341 50.894 37.3127 49.8453 37.8701 48.936C38.4421 48.012 39.2121 47.2933 40.1801 46.78C41.1627 46.252 42.2847 45.988 43.5461 45.988C44.7927 45.988 45.9074 46.252 46.8901 46.78C47.8727 47.2933 48.6427 48.0047 49.2001 48.914C49.7574 49.8233 50.0361 50.8793 50.0361 52.082C50.0361 53.2553 49.7574 54.304 49.2001 55.228C48.6427 56.1373 47.8727 56.856 46.8901 57.384C45.9074 57.912 44.7927 58.176 43.5461 58.176ZM43.5461 55.36C44.1181 55.36 44.6314 55.228 45.0861 54.964C45.5407 54.7 45.9001 54.326 46.1641 53.842C46.4281 53.3433 46.5601 52.7567 46.5601 52.082C46.5601 51.3927 46.4281 50.806 46.1641 50.322C45.9001 49.838 45.5407 49.464 45.0861 49.2C44.6314 48.936 44.1181 48.804 43.5461 48.804C42.9741 48.804 42.4607 48.936 42.0061 49.2C41.5514 49.464 41.1847 49.838 40.9061 50.322C40.6421 50.806 40.5101 51.3927 40.5101 52.082C40.5101 52.7567 40.6421 53.3433 40.9061 53.842C41.1847 54.326 41.5514 54.7 42.0061 54.964C42.4607 55.228 42.9741 55.36 43.5461 55.36ZM52.3301 58V41.676H55.7621V58H52.3301ZM58.9473 58V41.676H62.3793V58H58.9473ZM72.0369 58V42.6H79.0329C80.7049 42.6 82.1789 42.9227 83.4549 43.568C84.7309 44.1987 85.7283 45.086 86.4469 46.23C87.1656 47.374 87.5249 48.7307 87.5249 50.3C87.5249 51.8547 87.1656 53.2113 86.4469 54.37C85.7283 55.514 84.7309 56.4087 83.4549 57.054C82.1789 57.6847 80.7049 58 79.0329 58H72.0369ZM75.6009 55.074H78.8569C79.8836 55.074 80.7709 54.8833 81.5189 54.502C82.2816 54.106 82.8683 53.5487 83.2789 52.83C83.7043 52.1113 83.9169 51.268 83.9169 50.3C83.9169 49.3173 83.7043 48.474 83.2789 47.77C82.8683 47.0513 82.2816 46.5013 81.5189 46.12C80.7709 45.724 79.8836 45.526 78.8569 45.526H75.6009V55.074ZM95.6027 58.176C94.3414 58.176 93.2194 57.912 92.2367 57.384C91.2687 56.856 90.4987 56.1373 89.9267 55.228C89.3694 54.304 89.0907 53.2553 89.0907 52.082C89.0907 50.894 89.3694 49.8453 89.9267 48.936C90.4987 48.012 91.2687 47.2933 92.2367 46.78C93.2194 46.252 94.3414 45.988 95.6027 45.988C96.8494 45.988 97.9641 46.252 98.9467 46.78C99.9294 47.2933 100.699 48.0047 101.257 48.914C101.814 49.8233 102.093 50.8793 102.093 52.082C102.093 53.2553 101.814 54.304 101.257 55.228C100.699 56.1373 99.9294 56.856 98.9467 57.384C97.9641 57.912 96.8494 58.176 95.6027 58.176ZM95.6027 55.36C96.1747 55.36 96.6881 55.228 97.1427 54.964C97.5974 54.7 97.9567 54.326 98.2207 53.842C98.4847 53.3433 98.6167 52.7567 98.6167 52.082C98.6167 51.3927 98.4847 50.806 98.2207 50.322C97.9567 49.838 97.5974 49.464 97.1427 49.2C96.6881 48.936 96.1747 48.804 95.6027 48.804C95.0307 48.804 94.5174 48.936 94.0627 49.2C93.6081 49.464 93.2414 49.838 92.9627 50.322C92.6987 50.806 92.5667 51.3927 92.5667 52.082C92.5667 52.7567 92.6987 53.3433 92.9627 53.842C93.2414 54.326 93.6081 54.7 94.0627 54.964C94.5174 55.228 95.0307 55.36 95.6027 55.36ZM106.77 58L102.502 46.164H105.736L109.278 56.35H107.738L111.434 46.164H114.338L117.924 56.35H116.384L120.036 46.164H123.072L118.782 58H115.46L112.314 49.266H113.326L110.07 58H106.77ZM131.862 45.988C132.801 45.988 133.637 46.1787 134.37 46.56C135.118 46.9267 135.705 47.4987 136.13 48.276C136.555 49.0387 136.768 50.0213 136.768 51.224V58H133.336V51.752C133.336 50.7987 133.123 50.0947 132.698 49.64C132.287 49.1853 131.701 48.958 130.938 48.958C130.395 48.958 129.904 49.0753 129.464 49.31C129.039 49.53 128.701 49.8747 128.452 50.344C128.217 50.8133 128.1 51.4147 128.1 52.148V58H124.668V46.164H127.946V49.442L127.33 48.452C127.755 47.66 128.364 47.0513 129.156 46.626C129.948 46.2007 130.85 45.988 131.862 45.988Z" fill="white"/>
</svg>
