<svg width="141" height="64" viewBox="0 0 141 64" fill="none" xmlns="http://www.w3.org/2000/svg">
<path d="M67.9966 23.0103L65.993 21.0068L70 16.9998L65.9931 12.9929L67.9966 10.9895L74.0069 16.9998L67.9966 23.0103Z" fill="white"/>
<path fill-rule="evenodd" clip-rule="evenodd" d="M70 32.5834C61.3935 32.5834 54.4166 25.6065 54.4166 17C54.4166 8.39365 61.3935 1.41671 70 1.41671C78.6063 1.41671 85.5833 8.39365 85.5833 17C85.5833 25.6065 78.6063 32.5834 70 32.5834ZM82.75 17C82.75 24.0417 77.0416 29.75 70 29.75C62.9583 29.75 57.25 24.0417 57.25 17C57.25 9.95836 62.9583 4.25004 70 4.25004C77.0416 4.25004 82.75 9.95836 82.75 17Z" fill="white"/>
<path d="M6.886 58.264C5.654 58.264 4.47333 58.1027 3.344 57.78C2.21467 57.4427 1.30533 57.01 0.616 56.482L1.826 53.798C2.486 54.2673 3.26333 54.656 4.158 54.964C5.06733 55.2573 5.984 55.404 6.908 55.404C7.612 55.404 8.17667 55.338 8.602 55.206C9.042 55.0593 9.36467 54.8613 9.57 54.612C9.77533 54.3627 9.878 54.0767 9.878 53.754C9.878 53.3433 9.71667 53.0207 9.394 52.786C9.07133 52.5367 8.646 52.3387 8.118 52.192C7.59 52.0307 7.00333 51.884 6.358 51.752C5.72733 51.6053 5.08933 51.4293 4.444 51.224C3.81333 51.0187 3.234 50.7547 2.706 50.432C2.178 50.1093 1.74533 49.684 1.408 49.156C1.08533 48.628 0.924 47.9533 0.924 47.132C0.924 46.252 1.15867 45.4527 1.628 44.734C2.112 44.0007 2.83067 43.4213 3.784 42.996C4.752 42.556 5.962 42.336 7.414 42.336C8.382 42.336 9.33533 42.4533 10.274 42.688C11.2127 42.908 12.0413 43.2453 12.76 43.7L11.66 46.406C10.9413 45.9953 10.2227 45.6947 9.504 45.504C8.78533 45.2987 8.08133 45.196 7.392 45.196C6.70267 45.196 6.138 45.2767 5.698 45.438C5.258 45.5993 4.94267 45.812 4.752 46.076C4.56133 46.3253 4.466 46.6187 4.466 46.956C4.466 47.352 4.62733 47.6747 4.95 47.924C5.27267 48.1587 5.698 48.3493 6.226 48.496C6.754 48.6427 7.33333 48.7893 7.964 48.936C8.60933 49.0827 9.24733 49.2513 9.878 49.442C10.5233 49.6327 11.11 49.8893 11.638 50.212C12.166 50.5347 12.5913 50.96 12.914 51.488C13.2513 52.016 13.42 52.6833 13.42 53.49C13.42 54.3553 13.178 55.1473 12.694 55.866C12.21 56.5847 11.484 57.164 10.516 57.604C9.56267 58.044 8.35267 58.264 6.886 58.264ZM18.1045 58L13.8365 46.164H17.0705L20.6125 56.35H19.0725L22.7685 46.164H25.6725L29.2585 56.35H27.7185L31.3705 46.164H34.4065L30.1165 58H26.7945L23.6485 49.266H24.6605L21.4045 58H18.1045ZM36.002 58V46.164H39.434V58H36.002ZM37.718 44.514C37.0873 44.514 36.574 44.3307 36.178 43.964C35.782 43.5973 35.584 43.1427 35.584 42.6C35.584 42.0573 35.782 41.6027 36.178 41.236C36.574 40.8693 37.0873 40.686 37.718 40.686C38.3486 40.686 38.862 40.862 39.258 41.214C39.654 41.5513 39.852 41.9913 39.852 42.534C39.852 43.106 39.654 43.5827 39.258 43.964C38.8766 44.3307 38.3633 44.514 37.718 44.514ZM49.6152 58.176C48.6178 58.176 47.7452 57.956 46.9972 57.516C46.2492 57.076 45.6625 56.4087 45.2372 55.514C44.8265 54.6047 44.6212 53.4607 44.6212 52.082C44.6212 50.6887 44.8192 49.5447 45.2152 48.65C45.6112 47.7553 46.1832 47.088 46.9312 46.648C47.6792 46.208 48.5738 45.988 49.6152 45.988C50.7298 45.988 51.7272 46.2447 52.6072 46.758C53.5018 47.2567 54.2058 47.9607 54.7192 48.87C55.2472 49.7793 55.5112 50.85 55.5112 52.082C55.5112 53.3287 55.2472 54.4067 54.7192 55.316C54.2058 56.2253 53.5018 56.9293 52.6072 57.428C51.7272 57.9267 50.7298 58.176 49.6152 58.176ZM42.6192 62.268V46.164H45.8972V48.584L45.8312 52.104L46.0512 55.602V62.268H42.6192ZM49.0212 55.36C49.5932 55.36 50.0992 55.228 50.5392 54.964C50.9938 54.7 51.3532 54.326 51.6172 53.842C51.8958 53.3433 52.0352 52.7567 52.0352 52.082C52.0352 51.3927 51.8958 50.806 51.6172 50.322C51.3532 49.838 50.9938 49.464 50.5392 49.2C50.0992 48.936 49.5932 48.804 49.0212 48.804C48.4492 48.804 47.9358 48.936 47.4812 49.2C47.0265 49.464 46.6672 49.838 46.4032 50.322C46.1392 50.806 46.0072 51.3927 46.0072 52.082C46.0072 52.7567 46.1392 53.3433 46.4032 53.842C46.6672 54.326 47.0265 54.7 47.4812 54.964C47.9358 55.228 48.4492 55.36 49.0212 55.36ZM63.6826 58.176C62.3333 58.176 61.1453 57.912 60.1186 57.384C59.1066 56.856 58.3219 56.1373 57.7646 55.228C57.2073 54.304 56.9286 53.2553 56.9286 52.082C56.9286 50.894 57.1999 49.8453 57.7426 48.936C58.2999 48.012 59.0553 47.2933 60.0086 46.78C60.9619 46.252 62.0399 45.988 63.2426 45.988C64.4013 45.988 65.4426 46.2373 66.3666 46.736C67.3053 47.22 68.0459 47.924 68.5886 48.848C69.1313 49.7573 69.4026 50.85 69.4026 52.126C69.4026 52.258 69.3953 52.412 69.3806 52.588C69.3659 52.7493 69.3513 52.9033 69.3366 53.05H59.7226V51.048H67.5326L66.2126 51.642C66.2126 51.026 66.0879 50.4907 65.8386 50.036C65.5893 49.5813 65.2446 49.2293 64.8046 48.98C64.3646 48.716 63.8513 48.584 63.2646 48.584C62.6779 48.584 62.1573 48.716 61.7026 48.98C61.2626 49.2293 60.9179 49.5887 60.6686 50.058C60.4193 50.5127 60.2946 51.0553 60.2946 51.686V52.214C60.2946 52.8593 60.4339 53.4313 60.7126 53.93C61.0059 54.414 61.4093 54.788 61.9226 55.052C62.4506 55.3013 63.0666 55.426 63.7706 55.426C64.4013 55.426 64.9513 55.3307 65.4206 55.14C65.9046 54.9493 66.3446 54.6633 66.7406 54.282L68.5666 56.262C68.0239 56.878 67.3419 57.3547 66.5206 57.692C65.6993 58.0147 64.7533 58.176 63.6826 58.176ZM78.16 58V42.6H81.724V55.096H89.446V58H78.16ZM97.0049 58.176C95.6555 58.176 94.4675 57.912 93.4409 57.384C92.4289 56.856 91.6442 56.1373 91.0869 55.228C90.5295 54.304 90.2509 53.2553 90.2509 52.082C90.2509 50.894 90.5222 49.8453 91.0649 48.936C91.6222 48.012 92.3775 47.2933 93.3309 46.78C94.2842 46.252 95.3622 45.988 96.5649 45.988C97.7235 45.988 98.7649 46.2373 99.6889 46.736C100.628 47.22 101.368 47.924 101.911 48.848C102.454 49.7573 102.725 50.85 102.725 52.126C102.725 52.258 102.718 52.412 102.703 52.588C102.688 52.7493 102.674 52.9033 102.659 53.05H93.0449V51.048H100.855L99.5349 51.642C99.5349 51.026 99.4102 50.4907 99.1609 50.036C98.9115 49.5813 98.5669 49.2293 98.1269 48.98C97.6869 48.716 97.1735 48.584 96.5869 48.584C96.0002 48.584 95.4795 48.716 95.0249 48.98C94.5849 49.2293 94.2402 49.5887 93.9909 50.058C93.7415 50.5127 93.6169 51.0553 93.6169 51.686V52.214C93.6169 52.8593 93.7562 53.4313 94.0349 53.93C94.3282 54.414 94.7315 54.788 95.2449 55.052C95.7729 55.3013 96.3889 55.426 97.0929 55.426C97.7235 55.426 98.2735 55.3307 98.7429 55.14C99.2269 54.9493 99.6669 54.6633 100.063 54.282L101.889 56.262C101.346 56.878 100.664 57.3547 99.8429 57.692C99.0215 58.0147 98.0755 58.176 97.0049 58.176ZM105.428 58V45.9C105.428 44.5653 105.824 43.502 106.616 42.71C107.408 41.9033 108.537 41.5 110.004 41.5C110.502 41.5 110.979 41.5513 111.434 41.654C111.903 41.7567 112.299 41.918 112.622 42.138L111.72 44.624C111.529 44.492 111.316 44.3893 111.082 44.316C110.847 44.2427 110.598 44.206 110.334 44.206C109.835 44.206 109.446 44.3527 109.168 44.646C108.904 44.9247 108.772 45.35 108.772 45.922V47.022L108.86 48.496V58H105.428ZM103.602 49.068V46.428H111.808V49.068H103.602ZM118.358 58.176C116.964 58.176 115.879 57.824 115.102 57.12C114.324 56.4013 113.936 55.338 113.936 53.93V43.546H117.368V53.886C117.368 54.3847 117.5 54.7733 117.764 55.052C118.028 55.316 118.387 55.448 118.842 55.448C119.384 55.448 119.846 55.3013 120.228 55.008L121.152 57.428C120.8 57.6773 120.374 57.868 119.876 58C119.392 58.1173 118.886 58.176 118.358 58.176ZM112.11 49.068V46.428H120.316V49.068H112.11Z" fill="white"/>
</svg>
